<?xml version="1.0" standalone="no"?>
<!DOCTYPE svg PUBLIC "-//W3C//DTD SVG 20010904//EN"
 "http://www.w3.org/TR/2001/REC-SVG-20010904/DTD/svg10.dtd">
<svg version="1.0" xmlns="http://www.w3.org/2000/svg"
 width="5262.000000pt" height="3800.000000pt" viewBox="0 0 5262.000000 3800.000000"
 preserveAspectRatio="xMidYMid meet">

<g transform="translate(0.000000,3800.000000) scale(0.100000,-0.100000)"
fill="#fefefe" stroke="none">
<path d="M651 37932 c45 -47 81 -99 116 -168 116 -225 176 -485 263 -1129 118
-877 185 -1212 311 -1557 41 -112 144 -335 173 -373 13 -18 13 -15 0 30 -50
165 -96 413 -113 605 -15 163 -16 337 -7 800 6 286 5 439 -3 520 -12 125 -45
299 -67 363 -8 22 -13 42 -10 44 6 6 324 -326 450 -472 312 -359 512 -640 866
-1215 275 -446 449 -702 624 -915 512 -623 1237 -1146 2371 -1711 l330 -164
41 -293 c22 -160 39 -294 38 -296 -2 -2 -56 29 -121 70 -310 194 -615 353
-1198 624 -633 295 -877 423 -1150 602 -472 311 -839 687 -1135 1164 -39 62
-72 114 -74 117 -11 10 39 -151 81 -263 180 -479 478 -921 918 -1360 264 -264
502 -464 1005 -845 481 -365 687 -535 880 -729 232 -233 319 -382 296 -506
-20 -107 -198 -185 -425 -185 -366 0 -877 235 -1371 631 -60 48 -110 85 -110
82 0 -16 163 -197 309 -344 410 -410 921 -758 1530 -1043 258 -121 702 -291
839 -320 29 -7 32 -11 32 -44 0 -45 -18 -203 -23 -209 -6 -5 -151 41 -337 109
-1517 554 -2924 1761 -4052 3478 -241 367 -428 689 -620 1070 -66 129 -117
224 -114 210 147 -686 290 -1148 505 -1635 246 -556 599 -1088 919 -1385 100
-93 101 -93 -113 9 -551 263 -1021 660 -1324 1121 -97 146 -207 365 -251 500
-19 58 -36 107 -38 110 -5 7 -102 -106 -166 -194 -70 -98 -173 -306 -216 -436
-81 -249 -116 -582 -93 -877 6 -82 23 -116 23 -48 0 48 26 216 51 333 27 126
86 305 136 413 60 129 172 296 186 278 2 -2 26 -47 54 -99 240 -460 651 -912
1208 -1330 678 -509 1580 -975 2716 -1404 235 -88 498 -182 913 -323 233 -79
356 -126 356 -136 0 -3 -7 -21 -15 -40 -16 -40 -20 -196 -6 -280 4 -26 5 -50
1 -52 -10 -6 -379 14 -560 30 -321 30 -714 95 -1026 170 -892 214 -1777 614
-2411 1091 -68 51 -123 89 -123 85 0 -4 23 -41 52 -82 209 -299 538 -600 1053
-961 441 -310 971 -625 1850 -1103 470 -255 653 -368 932 -579 485 -364 662
-632 511 -773 -34 -32 -122 -69 -208 -88 -104 -22 -405 -31 -565 -16 -252 24
-584 96 -880 191 -487 157 -1117 451 -1634 761 -132 80 -125 68 55 -90 735
-645 1763 -1180 2974 -1548 276 -83 701 -190 950 -239 107 -21 196 -39 198
-40 2 -1 -6 -17 -16 -35 -27 -46 -53 -131 -61 -193 -7 -61 22 -61 -296 1
-1060 206 -2016 549 -2885 1033 -752 419 -1397 918 -2010 1555 -826 859 -1497
1953 -1861 3035 -76 224 -76 222 -28 -80 271 -1694 1195 -3188 2641 -4271 314
-235 661 -453 971 -610 86 -44 157 -81 157 -83 0 -7 -219 36 -360 70 -718 176
-1468 584 -1975 1075 l-115 112 0 -46 c0 -120 41 -416 86 -617 133 -595 415
-1141 798 -1548 124 -131 151 -143 66 -28 -250 337 -452 761 -556 1165 -37
143 -74 351 -74 415 0 36 1 38 19 25 87 -63 305 -207 386 -256 936 -563 2400
-1008 4145 -1257 254 -37 760 -96 818 -96 28 0 32 -3 28 -22 -30 -145 -2 -370
80 -661 20 -70 34 -130 32 -132 -24 -25 -809 -36 -1098 -16 -876 61 -1679 262
-2416 604 -336 156 -688 364 -911 538 -35 27 -65 49 -69 49 -7 0 51 -71 141
-174 191 -218 532 -465 902 -653 338 -173 626 -284 1442 -558 599 -200 807
-276 1043 -376 481 -205 708 -373 668 -494 -19 -57 -86 -105 -207 -148 -185
-67 -322 -88 -558 -88 -377 0 -900 70 -1543 207 -120 26 -228 48 -242 50 -37
6 228 -124 430 -210 1036 -442 2352 -762 3629 -881 91 -8 172 -16 180 -17 9
-1 -18 -5 -59 -9 -148 -16 -985 -22 -1215 -10 -1029 56 -1936 253 -2790 606
-202 83 -637 298 -820 405 -528 309 -1015 699 -1339 1070 l-48 55 45 -90 c96
-192 277 -470 437 -670 623 -780 1555 -1361 2719 -1695 449 -129 1018 -233
1402 -256 60 -4 112 -10 114 -14 10 -16 -363 -86 -615 -117 -208 -25 -727 -25
-930 0 -346 43 -641 114 -886 213 -48 19 -89 33 -91 30 -7 -6 15 -189 33 -272
93 -451 417 -850 883 -1088 159 -81 240 -112 134 -51 -242 139 -462 398 -578
680 -33 78 -88 265 -81 273 2 1 72 -9 157 -22 535 -87 1149 -101 1744 -41 636
65 1369 236 1909 446 55 22 103 39 107 39 3 0 9 -28 13 -62 10 -90 44 -230 78
-323 66 -180 202 -406 333 -552 l55 -61 -43 -25 c-306 -178 -682 -304 -1077
-361 -380 -55 -871 -45 -1315 25 -372 59 -840 180 -1130 293 l-90 35 60 -55
c227 -210 660 -408 1172 -538 460 -116 898 -181 1626 -241 701 -58 1064 -190
1016 -371 -16 -57 -108 -143 -200 -187 -205 -98 -522 -153 -939 -164 -146 -4
-214 -9 -195 -15 47 -13 296 -46 455 -60 187 -17 985 -17 1245 0 413 27 831
65 1124 102 85 11 156 18 158 17 5 -5 -367 -123 -512 -162 -441 -119 -943
-203 -1403 -235 -321 -21 -772 -11 -1112 26 -988 107 -2022 492 -2729 1016
l-94 71 64 -79 c157 -192 468 -489 694 -664 666 -515 1520 -858 2480 -994 718
-103 1505 -96 2290 20 143 21 549 98 635 120 33 9 26 3 -40 -36 -712 -420
-1731 -740 -2722 -856 l-57 -6 43 -87 c117 -231 306 -463 501 -612 161 -124
400 -253 590 -319 228 -79 571 -142 764 -139 l56 0 -113 30 c-521 135 -936
352 -1222 638 -88 88 -206 238 -196 249 3 2 78 12 167 23 1107 131 2125 553
2911 1209 l37 31 30 -63 c107 -226 351 -403 664 -483 l92 -24 -180 -178 c-305
-303 -552 -482 -920 -665 -308 -155 -622 -258 -945 -312 l-135 -23 70 -9 c104
-13 315 -9 445 10 347 51 691 157 1375 426 469 184 856 305 1062 330 274 34
316 -83 126 -348 -311 -433 -902 -781 -1648 -972 -172 -44 -173 -57 -4 -46
734 44 2091 677 4074 1899 509 314 1240 787 1690 1093 121 82 227 153 235 158
20 10 -4 -11 -241 -210 -1577 -1322 -3117 -2300 -4454 -2829 -398 -158 -931
-315 -1290 -380 -521 -95 -1005 -105 -1450 -30 -90 15 244 -108 465 -172 366
-105 666 -147 1045 -147 512 0 940 85 1459 291 543 215 894 420 2084 1219 554
372 774 506 1077 659 414 209 729 310 1075 346 139 14 399 7 525 -16 281 -50
573 -160 821 -311 40 -24 77 -44 82 -44 6 0 20 17 33 38 l23 37 8 -130 c37
-658 194 -1252 486 -1830 36 -71 67 -134 69 -140 1 -5 18 -54 37 -107 139
-386 59 -623 -220 -653 -38 -4 -217 8 -499 34 -994 91 -1907 151 -2300 151
-448 0 -730 -69 -951 -233 -153 -113 -445 -425 -675 -722 -736 -947 -1705
-2718 -2078 -3798 -70 -205 -91 -309 -98 -502 -19 -550 214 -1136 713 -1795
507 -670 1284 -1352 2109 -1852 1078 -653 3595 -1696 5250 -2174 558 -162 780
-200 1000 -174 234 27 426 135 596 335 78 92 104 105 205 105 92 0 156 -48
190 -142 8 -24 24 -124 35 -223 44 -417 101 -711 200 -1030 81 -260 211 -557
328 -749 23 -38 40 -70 38 -72 -1 -2 -178 -8 -392 -14 -2508 -67 -4292 -182
-5465 -350 -818 -118 -1230 -252 -1230 -402 0 -225 1378 -509 3450 -713 2600
-254 5772 -336 8740 -225 3372 127 6419 512 6839 866 97 81 35 171 -174 253
-677 267 -2987 478 -6150 561 -231 7 -499 15 -597 18 l-176 7 44 73 c66 107
175 331 227 462 153 392 239 763 297 1282 11 101 27 206 35 234 31 108 97 164
195 164 98 0 117 -11 220 -122 154 -165 291 -253 461 -297 215 -55 441 -33
878 85 1552 419 4127 1458 5343 2155 925 531 1815 1314 2358 2076 331 464 531
912 595 1333 24 153 22 395 -4 542 -78 446 -658 1703 -1262 2734 -639 1091
-1285 1917 -1674 2138 -96 55 -259 110 -412 138 -107 20 -151 22 -463 22 -190
0 -435 -5 -545 -12 -631 -40 -1215 -85 -1840 -143 -350 -32 -409 -32 -500 2
-71 26 -138 98 -159 170 -48 159 1 384 144 669 275 548 425 1053 485 1632 8
81 15 177 15 214 0 60 3 69 28 92 40 38 284 162 425 217 128 50 287 94 437
122 150 28 504 25 673 -6 294 -52 544 -139 882 -306 317 -157 559 -304 1133
-689 670 -450 862 -576 1102 -720 751 -451 1364 -683 2020 -762 200 -25 610
-25 810 0 252 30 492 82 735 157 131 41 398 139 393 144 -2 2 -61 -5 -131 -15
-565 -83 -1225 -19 -1943 189 -1472 425 -3278 1502 -5143 3065 -237 199 -261
220 -241 210 8 -5 114 -76 235 -158 1357 -924 2894 -1846 3920 -2351 839 -413
1423 -616 1844 -641 169 -11 168 2 -4 46 -749 192 -1335 537 -1648 972 -97
134 -136 243 -108 296 68 128 497 36 1296 -278 685 -269 1028 -375 1375 -426
130 -19 341 -23 445 -10 l70 9 -135 23 c-323 54 -637 157 -945 312 -368 183
-615 362 -920 665 l-180 178 90 23 c312 81 551 252 660 473 33 65 39 72 54 61
9 -7 43 -36 76 -64 95 -81 251 -195 391 -287 718 -470 1561 -770 2463 -876 89
-11 164 -21 167 -23 10 -11 -108 -161 -196 -249 -286 -286 -701 -503 -1222
-638 l-113 -30 56 0 c193 -3 536 60 764 139 190 66 429 195 590 319 195 149
384 381 501 612 l43 87 -57 6 c-991 116 -2010 436 -2722 856 -66 39 -73 45
-40 36 86 -22 492 -99 635 -120 785 -116 1572 -123 2290 -20 951 135 1801 473
2461 979 240 185 549 479 713 679 l64 79 -94 -71 c-533 -395 -1279 -725 -2034
-898 -450 -104 -900 -154 -1392 -154 -722 0 -1418 111 -2140 342 -106 34 -191
63 -190 65 2 1 73 -6 158 -17 293 -37 711 -75 1124 -102 260 -17 1058 -17
1245 0 158 14 407 47 455 60 19 6 -49 11 -195 15 -545 15 -915 103 -1071 256
-73 72 -88 116 -58 177 67 140 417 240 1006 289 728 60 1166 125 1626 241 513
130 945 328 1172 537 l60 56 -103 -40 c-296 -113 -746 -229 -1117 -288 -444
-70 -935 -80 -1315 -25 -395 57 -771 183 -1077 361 l-43 25 55 61 c131 146
267 372 333 552 34 93 68 233 78 323 4 34 10 62 13 62 4 0 52 -17 107 -39 540
-210 1273 -381 1909 -446 260 -26 441 -35 735 -35 393 0 671 21 1009 76 85 13
155 23 157 22 7 -8 -48 -195 -81 -273 -116 -282 -336 -541 -577 -680 -107 -61
-26 -30 133 51 466 238 790 636 883 1086 18 85 40 268 33 274 -2 3 -43 -11
-91 -30 -245 -99 -540 -170 -886 -213 -203 -25 -722 -25 -930 0 -252 31 -625
101 -615 117 2 4 54 10 114 14 130 7 389 39 556 67 1496 249 2732 887 3499
1804 193 232 393 529 503 750 l45 90 -48 -55 c-324 -371 -811 -761 -1339
-1070 -183 -107 -618 -322 -820 -405 -746 -308 -1546 -500 -2415 -579 -344
-32 -584 -39 -1055 -32 -383 6 -660 17 -595 24 8 1 89 9 180 17 1257 115 2596
439 3625 879 206 88 472 218 435 212 -14 -2 -122 -24 -242 -50 -643 -137
-1166 -207 -1543 -207 -236 0 -373 21 -558 88 -333 118 -275 279 183 512 296
151 549 248 1335 511 794 266 1085 379 1425 551 365 184 714 437 905 655 90
103 148 174 141 174 -4 0 -34 -22 -69 -49 -223 -174 -575 -382 -911 -538 -948
-440 -2029 -651 -3138 -613 -139 5 -282 12 -316 16 -58 6 -63 8 -59 28 3 11
21 80 41 151 52 186 78 339 79 480 0 66 -3 130 -7 143 -7 20 -4 22 26 22 58 0
563 59 818 96 1745 249 3209 694 4145 1257 81 49 299 193 386 256 18 13 19 11
19 -25 0 -64 -37 -272 -74 -415 -104 -404 -306 -828 -556 -1165 -85 -115 -58
-103 66 28 370 393 643 911 783 1487 51 207 101 545 101 678 l0 46 -115 -112
c-507 -491 -1257 -899 -1975 -1075 -141 -34 -360 -77 -360 -70 0 2 71 39 158
83 630 320 1292 813 1827 1362 959 984 1573 2194 1784 3519 48 302 48 304 -28
80 -327 -973 -907 -1964 -1625 -2779 -968 -1099 -2170 -1908 -3604 -2427 -476
-173 -987 -312 -1527 -417 -318 -62 -289 -62 -296 -1 -8 62 -34 147 -61 193
-10 18 -18 34 -16 35 2 1 91 19 198 40 107 21 317 69 465 106 1400 353 2623
947 3459 1681 180 158 187 170 55 90 -888 -533 -1821 -887 -2514 -952 -160
-15 -461 -6 -565 16 -86 19 -174 56 -208 88 -79 74 -66 195 36 334 118 160
404 403 735 625 179 120 271 174 677 395 206 113 452 248 545 301 1280 719
2004 1261 2353 1761 29 41 52 78 52 82 0 4 -55 -34 -122 -85 -635 -477 -1520
-877 -2412 -1091 -312 -75 -705 -140 -1026 -170 -181 -16 -550 -36 -560 -30
-4 2 -3 26 1 52 14 84 10 240 -6 280 -8 19 -15 37 -15 40 0 10 123 57 390 148
792 270 1236 439 1738 661 1536 679 2606 1507 3058 2369 31 61 59 112 62 115
8 9 72 -73 117 -150 117 -199 199 -459 244 -767 6 -39 11 -88 11 -107 0 -20 4
-36 9 -36 21 0 28 345 11 521 -41 401 -186 753 -417 1015 -28 32 -53 56 -55
54 -2 -3 -19 -52 -38 -110 -44 -135 -154 -354 -251 -500 -303 -461 -773 -858
-1324 -1121 -214 -102 -213 -102 -113 -9 259 240 541 636 769 1075 290 560
478 1119 655 1945 3 14 -48 -81 -114 -210 -192 -381 -379 -703 -620 -1070
-1128 -1717 -2535 -2924 -4052 -3478 -186 -68 -331 -114 -337 -109 -5 6 -23
164 -23 209 0 33 3 37 33 44 64 14 348 113 511 178 716 286 1353 689 1833
1159 129 127 322 341 332 370 2 6 -22 -11 -55 -39 -189 -163 -472 -350 -712
-471 -408 -204 -768 -257 -1013 -147 -295 133 -89 467 656 1059 77 61 255 199
395 305 503 381 741 581 1005 845 481 480 792 962 966 1499 22 66 37 121 36
123 -2 2 -32 -43 -66 -99 -254 -421 -613 -807 -1020 -1096 -300 -213 -565
-355 -1276 -687 -576 -269 -871 -422 -1176 -611 -75 -46 -138 -84 -140 -84 -3
0 13 133 36 295 l40 295 330 164 c1134 565 1859 1088 2371 1711 175 213 349
469 624 915 354 575 554 856 866 1215 126 146 444 478 450 472 3 -2 -2 -22
-10 -44 -23 -64 -55 -238 -67 -363 -8 -82 -9 -231 -3 -515 10 -478 8 -651 -12
-850 -16 -162 -58 -389 -98 -525 -14 -46 -23 -86 -22 -88 2 -2 35 61 74 140
123 251 202 498 277 873 41 206 64 354 165 1080 92 659 191 980 359 1158 72
76 76 72 -52 41 -259 -65 -515 -220 -752 -459 -205 -205 -384 -441 -686 -905
-669 -1025 -894 -1342 -1241 -1745 -540 -626 -1166 -1147 -1853 -1540 -157
-90 -594 -314 -640 -329 -20 -6 -20 -3 -12 137 14 231 -12 556 -59 727 -25 92
-56 170 -65 164 -5 -3 -9 -45 -9 -94 0 -122 -17 -360 -41 -575 -116 -1043
-448 -1813 -1034 -2400 -429 -431 -921 -741 -1986 -1251 -960 -459 -1387 -679
-1797 -925 l-124 -74 -3 -150 c-2 -113 -8 -171 -24 -235 -25 -96 -94 -249
-147 -322 -19 -28 -33 -52 -31 -54 6 -7 355 61 549 106 637 148 1389 408 2013
694 123 56 104 41 -90 -75 -665 -398 -1551 -719 -2485 -900 -208 -40 -229 -46
-290 -83 -170 -103 -388 -176 -798 -266 -118 -26 -185 -46 -210 -62 -148 -97
-372 -191 -590 -246 l-150 -39 371 -371 372 -372 98 0 97 0 0 -96 0 -96 233
-240 232 -240 85 7 c139 10 392 43 585 76 866 145 1667 445 2265 850 118 79
334 248 327 255 -2 2 -109 -45 -238 -105 -1062 -491 -1760 -678 -2036 -545
-134 65 -167 202 -93 392 64 165 183 336 360 513 100 99 145 135 323 253 243
160 370 260 487 382 80 83 180 218 180 242 0 6 33 20 73 32 1199 342 2101 914
2570 1630 37 58 90 149 117 203 43 89 49 95 54 70 29 -141 35 -597 11 -808
-94 -837 -465 -1546 -1145 -2189 -692 -654 -1707 -1125 -2750 -1275 -272 -40
-379 -46 -751 -46 l-366 0 146 -155 c382 -406 489 -576 517 -820 5 -48 10 -59
28 -64 35 -10 531 -7 701 4 648 41 1235 169 1800 391 205 81 577 268 770 388
l160 99 8 -57 c11 -76 1 -334 -18 -462 -98 -657 -482 -1182 -1140 -1560 -429
-246 -1008 -431 -1607 -514 -500 -68 -1217 -73 -1594 -10 -30 5 -32 3 -38 -30
-4 -20 -9 -42 -12 -49 -9 -22 343 -108 616 -150 335 -51 481 -60 950 -60 490
0 763 18 1200 79 31 5 30 4 -10 -10 -145 -48 -580 -147 -816 -186 -291 -47
-452 -60 -794 -66 -269 -4 -370 -2 -510 12 -216 20 -421 54 -605 100 l-140 35
-15 -22 c-48 -72 -143 -179 -206 -232 -92 -78 -164 -121 -270 -161 -46 -17
-87 -34 -90 -37 -7 -7 363 -97 541 -132 988 -194 2195 -252 2682 -130 35 9 67
14 72 12 15 -6 -28 -217 -68 -338 -91 -273 -235 -497 -462 -721 -377 -372
-946 -653 -1585 -783 -757 -154 -1509 -89 -2070 179 -120 58 -290 167 -369
238 l-50 45 133 -49 c273 -102 620 -187 927 -226 175 -22 673 -25 835 -5 269
33 491 81 709 152 116 37 345 130 338 136 -2 2 -27 -3 -57 -12 -104 -28 -276
-53 -445 -65 -894 -62 -2345 282 -2585 612 -107 149 6 287 296 360 213 54 585
80 844 59 267 -21 358 -23 500 -11 188 16 447 61 352 61 -42 0 -301 51 -477
95 -461 113 -966 315 -1278 512 l-42 26 85 23 c118 31 296 103 337 136 9 7 -2
22 -41 54 -30 24 -76 68 -102 98 l-49 54 -75 -36 c-211 -103 -473 -151 -750
-137 -80 3 -165 10 -190 14 -44 6 -43 7 45 20 189 29 383 87 542 162 86 41
246 143 277 177 17 20 17 23 1 74 -10 29 -19 56 -21 59 -2 3 -47 -9 -100 -28
-171 -59 -315 -84 -526 -90 -204 -6 -293 2 -447 43 -246 64 -449 211 -547 397
-33 63 -38 82 -42 158 -3 65 1 106 18 172 29 119 40 274 39 592 -1 261 -9 396
-21 365 -4 -8 -23 -80 -42 -160 -164 -667 -456 -1299 -844 -1830 -265 -362
-639 -748 -1017 -1050 -44 -35 -89 -71 -100 -79 -11 -9 59 67 155 169 519 552
753 905 948 1431 52 141 146 448 140 455 -3 2 -15 -22 -28 -54 -44 -109 -159
-328 -230 -436 -181 -278 -415 -528 -725 -775 -270 -216 -552 -397 -1135 -731
-707 -404 -958 -577 -1215 -834 -173 -173 -258 -287 -342 -457 l-58 -117 -105
102 c-58 55 -144 130 -192 165 l-86 64 -17 69 c-34 143 -99 269 -211 414 -63
81 -177 193 -246 243 -21 14 -38 30 -38 34 -1 28 101 303 151 406 203 426 506
689 1030 895 64 25 280 100 480 167 615 204 915 334 1230 529 281 174 491 346
999 816 958 885 1482 1280 1944 1464 307 122 484 95 682 -104 164 -165 280
-375 504 -911 234 -558 349 -767 594 -1074 l91 -115 1 -68 c4 -205 228 -398
434 -374 118 14 226 100 291 232 27 54 33 81 37 149 6 109 -19 192 -89 299
-68 103 -269 306 -434 436 -302 240 -409 392 -640 910 -100 225 -269 558 -410
809 l-98 174 24 19 c24 18 24 18 59 -20 19 -21 195 -213 390 -428 586 -643
859 -922 1065 -1089 185 -150 263 -185 412 -185 105 0 186 20 283 71 247 128
391 376 339 583 -30 118 -358 474 -1490 1611 l-717 720 -11 101 c-18 172 -62
279 -143 348 -23 20 -59 42 -80 48 -21 6 -38 14 -38 17 0 4 69 74 153 157
l152 151 120 17 c66 9 269 41 450 71 826 136 1299 244 1479 338 295 152 349
451 134 742 -198 269 -676 440 -1377 495 -172 13 -634 13 -816 0 -439 -32
-842 -113 -1026 -205 -225 -113 -380 -319 -435 -579 -53 -249 -9 -542 108
-716 118 -178 418 -267 772 -231 60 6 112 9 114 6 9 -9 -202 -216 -215 -210
-8 2 -85 10 -173 16 -385 28 -639 -49 -735 -222 -33 -60 -35 -90 -25 -369 5
-122 4 -127 -24 -188 -47 -101 -115 -157 -278 -225 -296 -126 -597 -324 -978
-643 -200 -167 -309 -265 -730 -654 -201 -186 -410 -377 -465 -425 -632 -555
-1449 -1033 -2190 -1280 -426 -142 -750 -202 -1151 -212 l-222 -6 -7 34 c-24
124 -87 221 -187 292 -229 162 -592 252 -1023 252 -176 0 -204 -2 -235 -19
-57 -30 -80 -57 -96 -112 -41 -142 -145 -199 -261 -143 -24 12 -92 67 -151
123 -331 312 -598 509 -942 696 -413 224 -895 376 -1390 437 -210 26 -853 26
-1055 0 -716 -93 -1321 -334 -1880 -749 -170 -126 -251 -195 -418 -356 -153
-146 -204 -176 -286 -170 -51 5 -58 9 -98 52 -28 32 -48 67 -59 102 -20 70
-60 109 -132 130 -48 14 -88 16 -252 11 -488 -15 -873 -133 -1052 -324 -55
-60 -84 -113 -102 -191 l-13 -57 -209 1 c-214 0 -331 10 -534 45 -770 133
-1653 546 -2459 1152 -229 172 -336 266 -846 737 -487 451 -671 612 -922 808
-271 211 -518 363 -751 464 -153 66 -218 109 -261 175 -59 89 -66 131 -53 321
10 144 10 177 -3 226 -41 158 -192 254 -449 286 -93 12 -252 10 -446 -5 l-65
-5 -99 105 -98 105 58 -7 c33 -5 138 -8 234 -7 144 0 190 4 262 22 157 39 277
113 348 216 91 133 141 382 120 593 -32 314 -180 550 -431 686 -349 190 -1327
286 -2055 202 -564 -66 -980 -225 -1164 -446 -244 -293 -200 -617 106 -776
204 -106 799 -236 1778 -388 l279 -43 153 -153 154 -153 -44 -13 c-127 -37
-225 -220 -226 -422 l0 -64 -697 -701 c-1042 -1047 -1434 -1464 -1504 -1599
-45 -87 -32 -225 33 -351 48 -91 182 -221 283 -273 173 -89 319 -103 475 -44
172 65 560 433 1211 1151 117 129 280 308 362 398 l150 163 21 -21 c18 -17 19
-23 8 -41 -108 -172 -392 -722 -492 -949 -91 -210 -210 -442 -278 -543 -86
-130 -173 -220 -344 -358 -172 -138 -361 -322 -431 -421 -26 -36 -61 -95 -78
-132 -82 -174 -29 -384 129 -513 146 -119 353 -89 501 73 70 76 95 133 99 225
l4 75 79 100 c248 309 367 522 588 1046 262 624 342 770 521 950 79 80 110
104 174 134 165 79 346 53 645 -91 426 -207 911 -578 1690 -1296 647 -596 820
-740 1103 -915 334 -206 575 -310 1223 -528 449 -150 538 -184 710 -265 390
-186 645 -436 820 -804 53 -112 145 -363 145 -399 0 -9 -14 -27 -31 -39 -213
-151 -399 -416 -458 -652 l-18 -72 -99 -75 c-55 -41 -156 -132 -225 -202
l-126 -127 -12 42 c-22 73 -119 259 -188 357 -41 57 -127 155 -218 246 -257
257 -508 430 -1215 834 -583 334 -865 515 -1135 731 -310 247 -544 497 -725
775 -71 108 -186 327 -230 436 -13 32 -25 56 -28 54 -6 -7 88 -316 139 -453
198 -531 432 -884 953 -1436 136 -144 158 -172 109 -133 -381 297 -753 672
-1030 1037 -410 541 -719 1197 -889 1889 -19 80 -38 152 -41 160 -13 32 -22
-117 -23 -365 0 -307 11 -479 41 -594 16 -64 20 -105 17 -170 -4 -76 -9 -94
-42 -158 -98 -186 -301 -333 -547 -397 -154 -41 -243 -49 -447 -43 -212 6
-361 32 -527 91 -52 19 -97 31 -99 28 -2 -4 -11 -31 -21 -60 -16 -51 -16 -54
1 -74 31 -34 191 -136 277 -177 159 -75 353 -133 542 -162 88 -13 89 -14 45
-20 -25 -4 -110 -11 -190 -14 -277 -14 -527 31 -745 135 l-80 38 -49 -54 c-26
-30 -73 -75 -102 -99 l-55 -44 26 -17 c66 -43 338 -143 394 -144 27 -1 -21
-34 -158 -109 -329 -180 -740 -337 -1146 -436 -176 -44 -435 -95 -477 -95 -95
0 164 -45 352 -61 142 -12 233 -10 500 11 164 13 397 7 599 -16 618 -70 768
-329 328 -568 -516 -280 -1662 -496 -2372 -447 -169 12 -341 37 -445 65 -30 9
-55 14 -57 12 -2 -2 45 -23 104 -48 277 -118 582 -195 943 -240 162 -20 660
-17 835 5 307 39 654 124 927 226 l133 49 -50 -45 c-132 -118 -364 -248 -590
-331 -342 -125 -819 -188 -1242 -163 -573 33 -1068 162 -1533 396 -265 135
-474 281 -659 464 -227 224 -371 448 -462 721 -40 121 -83 332 -68 338 5 2 37
-3 72 -12 489 -123 1672 -65 2682 130 196 38 548 125 538 133 -4 4 -42 20 -85
35 -154 55 -301 167 -415 315 -37 47 -69 89 -72 93 -4 4 -69 -8 -146 -27 -185
-46 -390 -80 -605 -100 -140 -14 -241 -16 -510 -12 -342 6 -503 19 -794 66
-236 39 -671 138 -816 186 -40 14 -41 15 -10 10 437 -61 710 -79 1200 -79 469
0 615 9 950 60 273 42 625 128 616 150 -3 7 -8 29 -12 49 -6 33 -8 35 -38 30
-286 -48 -982 -58 -1341 -20 -448 47 -812 123 -1176 244 -1118 373 -1759 1065
-1838 1986 -12 133 -13 275 -3 346 l7 47 160 -99 c193 -120 565 -307 770 -388
565 -222 1152 -350 1800 -391 170 -11 666 -14 701 -4 18 5 23 16 28 64 28 244
135 414 517 820 l146 155 -366 0 c-372 0 -479 6 -751 46 -867 125 -1725 474
-2390 973 -260 195 -576 499 -765 736 -422 528 -668 1110 -740 1755 -24 211
-18 667 11 808 5 25 11 19 54 -70 216 -438 659 -878 1230 -1223 193 -117 533
-283 771 -377 184 -73 493 -178 687 -233 39 -12 72 -26 72 -32 0 -23 98 -155
177 -239 112 -117 237 -218 430 -344 247 -163 260 -173 383 -295 339 -337 482
-682 349 -843 -193 -234 -929 -65 -2118 484 -129 60 -236 107 -238 105 -7 -7
209 -176 327 -255 513 -348 1175 -618 1905 -780 291 -65 689 -126 945 -146
l85 -7 233 240 232 240 0 96 0 96 97 0 98 0 372 372 372 372 -150 38 c-216 54
-442 148 -591 246 -25 16 -92 36 -210 62 -413 91 -628 163 -801 268 -55 33
-87 45 -160 58 -943 163 -1919 508 -2612 923 -194 116 -213 131 -90 75 624
-286 1376 -546 2013 -694 194 -45 543 -113 549 -106 2 2 -12 26 -31 54 -53 73
-122 226 -147 322 -16 64 -22 122 -24 235 l-3 150 -124 74 c-410 246 -837 466
-1797 925 -1065 510 -1557 820 -1986 1251 -648 649 -979 1504 -1065 2745 -5
80 -10 187 -10 238 0 50 -4 92 -9 92 -9 0 -42 -84 -65 -170 -47 -171 -73 -496
-59 -727 8 -140 8 -143 -12 -137 -37 12 -459 226 -585 297 -888 501 -1621
1157 -2284 2042 -175 233 -320 442 -536 773 -660 1011 -768 1160 -1020 1412
-237 238 -499 395 -765 458 -108 26 -105 30 -34 -46z m38874 -8652 c643 -32
1128 -167 1354 -376 183 -169 199 -382 40 -534 -47 -45 -165 -117 -175 -107
-2 2 11 27 30 56 59 88 68 186 24 258 l-19 33 -25 -29 c-82 -98 -319 -101
-418 -5 -49 47 -62 99 -42 168 19 66 46 101 99 128 49 25 160 35 225 20 43
-10 43 -10 26 9 -35 39 -160 108 -249 138 -131 44 -215 54 -400 48 -218 -7
-346 -32 -252 -51 17 -3 77 -28 132 -55 164 -80 290 -215 350 -374 l24 -66
-27 -5 c-15 -3 -180 -8 -367 -12 l-340 -6 -25 47 c-21 41 -69 85 -92 85 -5 0
-8 -22 -8 -49 0 -27 -5 -62 -11 -77 l-10 -28 -25 44 c-62 111 -159 173 -271
173 -119 0 -193 -64 -209 -178 -11 -84 -13 -86 -35 -74 -42 22 -102 93 -129
151 l-27 61 -22 -31 c-12 -17 -33 -56 -47 -86 l-25 -56 -489 0 -488 0 -16 -48
c-112 -335 108 -610 516 -648 80 -8 81 -8 38 -15 -125 -20 -278 0 -388 52 -77
37 -180 131 -226 208 -83 136 -116 332 -82 491 20 98 84 225 146 293 223 244
778 412 1475 447 227 11 234 11 460 0z m-25595 -24 c594 -72 1006 -223 1193
-437 91 -104 147 -264 147 -418 -1 -385 -282 -650 -655 -615 l-80 8 74 8 c214
23 378 108 472 244 70 102 89 258 46 384 l-22 65 -488 3 -487 2 -30 63 c-29
59 -67 114 -73 106 -2 -2 -11 -26 -21 -52 -18 -47 -91 -133 -134 -156 -21 -11
-22 -10 -22 22 0 54 -29 135 -61 172 -22 25 -48 40 -86 51 -132 38 -265 -26
-344 -165 -19 -35 -25 -39 -30 -24 -4 10 -8 44 -8 76 -1 62 -9 69 -51 40 -33
-23 -56 -51 -71 -87 l-12 -28 -256 6 c-141 3 -305 9 -364 12 -125 7 -121 -3
-56 132 77 159 235 293 410 349 49 15 89 31 89 34 0 9 -105 27 -230 40 -178
18 -384 -9 -521 -66 -70 -30 -185 -101 -208 -129 -14 -16 -12 -17 25 -9 21 4
73 8 114 8 88 0 149 -28 187 -84 71 -105 45 -215 -62 -270 -44 -23 -62 -26
-155 -26 -115 0 -158 15 -210 69 l-24 27 -23 -38 c-44 -73 -26 -190 43 -280
14 -18 22 -33 18 -33 -24 0 -138 74 -185 120 -74 73 -102 145 -97 245 14 272
343 482 923 590 117 21 327 48 460 59 131 10 736 -3 865 -18z m-3089 -1654
c295 -95 477 -125 775 -126 l221 -1 50 -60 c193 -231 485 -426 828 -551 104
-38 88 -42 -73 -19 -329 47 -629 165 -822 325 -35 29 -57 39 -100 44 -155 19
-434 96 -628 171 -210 82 -489 237 -602 334 -34 29 -30 28 81 -18 63 -27 185
-71 270 -99z m31308 132 c-27 -33 -258 -178 -383 -241 -267 -134 -623 -248
-866 -279 -43 -5 -65 -15 -100 -44 -193 -160 -493 -278 -822 -325 -161 -23
-177 -19 -73 19 343 125 635 320 828 551 l50 60 221 1 c227 1 315 10 524 55
126 27 400 117 527 173 55 24 102 44 104 45 2 1 -2 -6 -10 -15z m-27521 -394
c144 -19 252 -104 323 -255 136 -291 63 -639 -156 -736 -68 -31 -200 -38 -278
-15 -172 50 -274 230 -313 551 l-8 60 -9 -65 c-17 -122 -13 -493 6 -620 29
-184 74 -342 134 -465 l24 -50 -35 40 c-46 52 -126 207 -166 320 -102 291
-146 650 -104 852 45 219 191 353 416 382 87 12 84 12 166 1z m23702 -16 c170
-51 280 -163 326 -335 67 -253 -27 -796 -189 -1089 -34 -62 -108 -163 -114
-156 -2 2 10 32 27 65 69 138 119 337 141 561 12 126 6 442 -9 525 -7 37 -9
33 -15 -40 -19 -237 -123 -438 -259 -504 -102 -49 -246 -48 -347 3 -137 70
-220 254 -207 461 17 274 153 474 356 522 69 16 215 10 290 -13z m-22790 -890
c196 -37 433 -149 670 -317 210 -150 435 -343 805 -692 845 -798 1592 -1358
2310 -1731 640 -333 1343 -524 1930 -524 80 0 145 -2 145 -4 0 -3 -5 -17 -10
-32 l-10 -27 -218 6 c-119 3 -273 12 -342 22 -1208 161 -2365 837 -3890 2275
-680 641 -1068 902 -1444 971 -50 10 -65 16 -61 27 3 7 5 20 5 28 0 18 9 18
110 -2z m21738 -16 c3 -24 -1 -28 -35 -33 -229 -39 -478 -159 -763 -368 -206
-152 -373 -296 -740 -642 -1305 -1229 -2365 -1901 -3400 -2154 -299 -73 -496
-100 -789 -108 -235 -6 -240 -5 -241 38 0 14 25 17 203 22 1068 30 2166 539
3427 1590 260 216 486 416 712 629 375 354 549 507 724 640 289 218 548 353
774 403 95 20 124 16 128 -17z m-21726 -139 c125 -38 320 -136 473 -238 224
-149 451 -341 865 -731 1285 -1211 2351 -1888 3376 -2144 291 -73 492 -101
829 -117 132 -7 242 -13 244 -15 2 -2 -18 -40 -45 -85 -65 -107 -171 -209
-250 -239 -147 -57 -476 -25 -919 90 -760 196 -1519 618 -2228 1237 -147 129
-402 378 -500 488 l-72 80 105 -100 c298 -283 708 -582 1153 -839 54 -31 100
-56 104 -56 3 0 -42 33 -100 74 -323 226 -557 423 -1177 991 -387 354 -533
484 -720 640 -442 368 -840 621 -1203 765 -96 39 -108 46 -103 64 3 12 9 56
12 98 8 90 -8 86 156 37z m21761 -41 c3 -46 8 -90 12 -99 5 -13 -11 -23 -77
-49 -390 -153 -804 -417 -1273 -810 -181 -152 -297 -256 -700 -625 -363 -333
-528 -479 -712 -632 -133 -111 -364 -287 -455 -348 -59 -38 -76 -55 -35 -34
81 43 317 189 456 282 268 179 525 378 716 557 139 130 143 128 17 -6 -259
-279 -622 -598 -952 -836 -568 -410 -1186 -706 -1783 -853 -335 -82 -678 -123
-798 -95 -129 30 -237 119 -324 268 l-45 77 147 7 c402 19 622 47 913 119
1025 252 2106 937 3385 2144 528 498 807 720 1090 867 126 65 186 90 300 123
118 35 111 38 118 -57z m-23746 -169 c90 -70 197 -232 247 -377 l15 -43 -50
28 c-72 40 -180 142 -212 201 -25 45 -67 184 -67 219 0 20 9 16 67 -28z
m25637 9 c-21 -119 -60 -209 -123 -280 -47 -53 -193 -156 -199 -140 -5 15 47
135 93 219 41 73 191 233 218 233 13 0 15 -7 11 -32z m-1751 -229 c24 -42 22
-46 -20 -54 -108 -20 -347 -134 -560 -267 -448 -282 -955 -697 -1508 -1237
-828 -809 -1415 -1234 -2008 -1455 -101 -38 -286 -91 -293 -84 -2 2 63 31 144
64 276 111 591 277 827 436 311 210 511 382 1060 913 599 579 889 835 1287
1136 435 328 827 544 1048 578 3 1 13 -13 23 -30z m-22038 -13 c234 -78 539
-260 924 -551 358 -270 686 -557 1154 -1011 396 -383 548 -525 714 -669 410
-353 817 -601 1328 -806 137 -55 133 -62 -11 -20 -369 106 -761 318 -1199 646
-299 224 -547 442 -937 822 -906 883 -1678 1444 -2145 1559 -9 2 -8 11 5 34
22 39 39 38 167 -4z m-139 -87 c86 -26 305 -130 421 -200 390 -234 896 -630
1368 -1072 77 -72 284 -270 460 -440 498 -482 722 -675 1004 -865 177 -120
278 -181 442 -266 68 -36 120 -66 115 -66 -5 0 -67 28 -139 62 -602 285 -1060
627 -1977 1477 -653 605 -875 793 -1101 928 -234 141 -390 197 -714 258 -76
15 -143 29 -147 31 -5 3 17 23 49 44 32 20 78 58 103 84 24 25 45 46 46 46 1
0 33 -9 70 -21z m22280 -34 c30 -30 77 -68 105 -84 28 -16 46 -32 41 -35 -6
-3 -100 -24 -209 -45 -543 -108 -770 -256 -1658 -1081 -854 -794 -1270 -1126
-1750 -1402 -144 -82 -468 -238 -493 -238 -4 0 56 33 133 74 479 250 782 486
1414 1097 162 156 353 340 425 408 597 565 1184 1015 1601 1228 119 61 291
131 324 133 7 0 37 -25 67 -55z m-24450 -180 c87 -86 182 -229 224 -341 10
-24 7 -23 -72 18 -107 55 -195 138 -241 225 -35 68 -67 160 -67 195 0 18 2 18
42 -4 23 -13 75 -54 114 -93z m26649 83 c-40 -190 -137 -320 -308 -409 -43
-22 -80 -39 -82 -37 -2 1 10 31 25 66 43 93 134 228 199 293 54 54 144 119
164 119 5 0 6 -15 2 -32z m-1524 -232 c202 -172 352 -380 674 -936 291 -504
428 -685 669 -889 195 -166 259 -234 298 -317 54 -115 49 -248 -11 -313 -48
-52 -103 -53 -161 -4 l-32 27 45 13 c48 14 90 55 80 79 -6 16 -24 21 -110 27
-132 10 -260 103 -423 307 -159 199 -330 512 -509 930 -285 665 -420 901 -661
1154 l-65 69 64 -40 c35 -23 99 -71 142 -107z m-23648 47 c-223 -250 -363
-495 -613 -1078 -255 -594 -411 -862 -644 -1103 -119 -123 -194 -166 -303
-177 -105 -9 -113 -12 -113 -39 0 -30 40 -63 86 -72 43 -8 43 -17 0 -43 -51
-32 -86 -35 -123 -12 -75 47 -99 184 -54 302 36 94 89 157 236 282 77 65 169
146 205 180 151 143 296 354 566 817 281 483 409 666 586 836 70 67 220 184
236 184 2 0 -27 -35 -65 -77z m597 -23 c319 -48 647 -193 968 -427 237 -173
385 -303 892 -783 586 -554 820 -749 1223 -1019 451 -301 824 -480 1202 -577
154 -39 141 -44 -30 -9 -473 96 -1056 379 -1571 762 -223 167 -368 297 -744
668 -376 371 -553 539 -711 671 -525 443 -991 676 -1446 724 l-88 9 115 -4
c63 -2 149 -9 190 -15z m22604 9 c-504 -36 -1020 -304 -1626 -844 -67 -61
-294 -279 -503 -485 -412 -406 -490 -479 -665 -620 -532 -429 -1185 -766
-1690 -869 -146 -30 -211 -35 -95 -7 439 105 965 378 1505 779 316 235 452
353 1005 877 429 407 594 552 800 706 357 265 705 418 1055 463 36 5 124 8
195 8 l130 0 -111 -8z m-25218 -257 c98 -64 205 -194 278 -340 56 -110 57
-109 -37 -60 -101 53 -210 157 -249 239 -31 64 -71 199 -59 199 4 0 34 -17 67
-38z m27644 24 c0 -8 -11 -51 -25 -95 -47 -147 -141 -255 -297 -336 -38 -20
-71 -35 -73 -33 -2 2 15 42 39 89 81 162 175 280 278 348 65 44 78 49 78 27z
m-13525 -427 c798 -66 1514 -350 2139 -849 528 -421 953 -956 1195 -1501 130
-294 220 -630 274 -1024 30 -220 32 -776 4 -985 -74 -545 -230 -1000 -513
-1492 -380 -661 -864 -1122 -1523 -1452 -1273 -638 -2876 -582 -4079 142 -582
350 -1028 842 -1369 1508 -230 449 -360 881 -415 1379 -19 178 -16 642 6 830
112 955 470 1657 1202 2356 673 641 1500 1014 2419 1089 243 20 411 19 660 -1z
m-14427 -232 c72 -85 174 -229 167 -235 -9 -10 -135 91 -200 159 -66 70 -115
149 -131 214 l-7 30 50 -43 c28 -23 82 -79 121 -125z m28357 141 c-32 -114
-138 -246 -272 -339 l-76 -52 23 41 c42 75 150 211 232 292 83 83 104 96 93
58z m-5185 -11 c0 -2 -10 -12 -22 -23 l-23 -19 19 23 c18 21 26 27 26 19z
m-12616 -947 c110 -11 141 -25 161 -73 14 -35 30 -155 41 -309 l7 -98 -65 -68
c-118 -126 -237 -331 -373 -645 -33 -75 -61 -133 -63 -129 -6 18 78 322 123
447 26 72 73 186 106 255 l59 125 -57 -60 c-193 -204 -343 -555 -419 -980
l-24 -130 5 139 c5 150 25 302 56 436 70 303 225 621 396 810 l58 64 -55 -31
c-191 -110 -349 -294 -441 -516 -43 -103 -45 -100 -24 28 32 201 100 340 226
468 68 69 82 87 65 87 -39 0 -319 -49 -401 -70 -155 -40 -271 -113 -315 -200
-45 -89 -81 -259 -102 -490 -22 -246 -10 -1106 18 -1295 4 -22 4 -38 1 -35 -7
7 -70 326 -101 510 -108 641 -106 1150 5 1375 44 91 142 181 251 234 146 70
392 132 598 150 133 12 152 12 264 1z m7320 0 c326 -27 636 -129 772 -253 65
-59 127 -177 149 -282 70 -340 31 -885 -110 -1565 -33 -157 -34 -161 -30 -85
29 495 31 1075 5 1310 -14 137 -47 306 -71 370 -66 177 -207 247 -625 309 -85
13 -152 20 -147 17 134 -109 189 -177 247 -303 40 -84 72 -205 81 -298 l6 -65
-35 84 c-92 219 -252 404 -451 521 l-40 24 48 -54 c79 -91 193 -269 252 -394
128 -268 207 -611 204 -888 l-1 -93 -22 130 c-72 409 -222 753 -426 975 l-51
55 41 -83 c58 -118 122 -277 165 -411 40 -126 88 -317 83 -332 -2 -5 -23 37
-47 93 -133 311 -268 545 -389 679 l-60 65 9 125 c12 155 26 255 42 288 17 35
53 50 144 60 111 12 124 12 257 1z m-11004 -880 c8 -5 11 -10 5 -10 -5 0 -17
5 -25 10 -8 5 -10 10 -5 10 6 0 17 -5 25 -10z m890 -301 c100 -26 275 -113
385 -191 49 -34 147 -119 218 -188 214 -206 383 -432 515 -690 67 -129 148
-327 139 -337 -3 -2 -29 -19 -58 -38 l-54 -34 -28 77 c-48 133 -182 392 -275
532 -257 387 -576 649 -967 797 -84 31 -86 33 -40 27 76 -9 208 -50 287 -89
83 -41 89 -43 51 -11 -55 46 -144 97 -220 127 -43 16 -87 34 -98 38 -34 15 63
1 145 -20z m12815 21 c-11 -4 -52 -20 -90 -34 -82 -30 -182 -87 -234 -133
l-36 -32 57 30 c31 16 89 41 130 55 72 26 249 67 256 60 2 -2 -34 -16 -80 -31
-474 -156 -893 -551 -1163 -1095 -35 -69 -79 -168 -99 -222 l-37 -96 -51 31
c-28 17 -53 38 -56 45 -7 20 52 170 124 312 261 515 689 941 1079 1075 75 26
253 57 200 35z m-11790 -110 l460 -49 -320 4 c-176 2 -313 2 -305 0 8 -3 157
-27 330 -55 173 -28 325 -52 336 -55 20 -4 22 -14 28 -107 18 -263 51 -525 92
-726 14 -68 24 -125 22 -126 -2 -1 -34 -15 -73 -31 -38 -15 -101 -44 -139 -62
-37 -19 -69 -33 -70 -31 -1 2 -10 37 -20 78 -27 111 -101 310 -161 435 -162
336 -370 579 -629 733 -61 37 -66 42 -40 41 16 0 236 -22 489 -49z m11125 46
c0 -2 -26 -19 -57 -36 -342 -193 -624 -599 -779 -1120 -20 -69 -38 -126 -39
-128 -1 -1 -47 19 -101 45 -55 27 -118 56 -140 65 l-42 16 23 108 c43 201 95
624 95 775 0 36 5 61 13 66 6 4 165 33 352 65 l340 57 -315 -4 c-173 -1 -301
-1 -285 2 54 8 859 90 898 92 20 0 37 -1 37 -3z m-15970 -287 c135 -31 267
-140 339 -279 61 -117 83 -210 84 -355 1 -148 -16 -222 -85 -365 -45 -93 -61
-115 -147 -200 -81 -81 -112 -104 -196 -147 -182 -93 -325 -124 -570 -123 -88
0 -189 4 -225 10 -35 5 -66 8 -67 6 -2 -2 26 -17 62 -35 152 -75 407 -109 677
-91 136 9 302 29 381 46 51 11 27 -4 -80 -49 -140 -58 -303 -110 -433 -138
-87 -19 -136 -23 -280 -23 -156 1 -185 3 -271 26 -369 99 -637 368 -804 807
-31 84 -90 290 -83 296 2 2 75 29 162 60 338 120 593 229 961 412 137 68 268
126 305 135 75 19 205 22 270 7z m20481 -5 c47 -11 148 -55 312 -136 370 -184
624 -293 963 -413 87 -31 160 -58 162 -60 2 -2 -9 -50 -24 -107 -76 -289 -216
-549 -390 -724 -136 -135 -286 -222 -473 -272 -86 -23 -115 -25 -271 -26 -207
0 -300 17 -530 93 -149 50 -321 125 -265 116 476 -78 840 -63 1060 46 36 18
64 33 62 35 -1 2 -32 -1 -67 -6 -36 -6 -137 -10 -225 -10 -245 -1 -388 30
-570 123 -84 43 -115 66 -196 147 -86 85 -102 107 -147 200 -67 140 -86 225
-85 370 1 139 24 235 84 350 71 137 205 248 335 279 63 15 189 12 265 -5z
m-14418 -841 c-20 -134 -28 -562 -14 -738 50 -631 221 -1213 510 -1730 96
-171 257 -412 371 -555 117 -145 119 -149 92 -126 -37 32 -237 256 -313 351
-307 385 -554 850 -688 1295 -81 269 -124 505 -143 799 l-12 183 -39 -78
c-135 -268 -205 -662 -179 -1001 46 -600 303 -1142 814 -1720 l108 -121 -78
-7 c-105 -10 -206 -29 -276 -54 -32 -11 -61 -23 -64 -25 -21 -22 121 -110 237
-147 53 -17 97 -31 98 -32 1 -1 -233 -2 -520 -2 -541 0 -667 -6 -917 -46 -69
-11 -151 -27 -184 -35 -32 -8 -60 -14 -61 -12 -2 2 1 59 6 128 4 69 15 274 24
455 29 624 61 1016 111 1355 113 774 317 1301 627 1626 96 101 157 151 262
215 58 35 216 108 236 109 3 0 -1 -39 -8 -87z m8294 37 c539 -250 863 -884
1012 -1980 44 -322 71 -666 101 -1285 11 -225 23 -448 26 -494 l7 -84 -29 7
c-293 75 -607 99 -1231 94 -237 -2 -430 -2 -428 0 2 2 29 10 62 18 133 34 301
140 263 165 -46 29 -187 60 -337 74 l-73 7 90 96 c264 285 493 626 633 943
140 317 206 621 207 946 0 325 -67 632 -189 868 l-36 70 -2 -80 c-23 -837
-368 -1673 -969 -2355 -56 -63 -126 -137 -155 -165 l-53 -50 51 60 c505 603
825 1348 927 2155 38 298 40 724 6 960 -5 36 -10 69 -10 73 0 12 33 1 127 -43z
m-9302 -456 c-353 -356 -583 -1100 -684 -2209 -75 -823 -81 -1740 -21 -3213
11 -266 19 -507 19 -535 -1 -29 -14 94 -29 273 -132 1541 -146 2880 -40 3835
93 830 284 1424 555 1723 66 72 148 138 220 175 28 14 51 26 53 27 1 0 -32
-34 -73 -76z m10205 33 c77 -45 237 -206 300 -302 244 -375 405 -1020 475
-1910 29 -373 38 -647 38 -1165 -1 -771 -35 -1497 -113 -2414 -11 -126 -20
-239 -20 -249 0 -11 -2 -18 -5 -15 -3 3 4 223 15 489 36 880 42 1138 42 1744
1 1106 -53 1829 -187 2490 -126 624 -302 1036 -555 1298 -80 82 -78 86 10 34z
m-13760 -188 c88 -19 147 -89 184 -219 37 -132 29 -249 -25 -369 -43 -95 -164
-211 -284 -273 -193 -99 -436 -155 -750 -174 l-120 -8 71 -33 c84 -38 226 -77
351 -95 94 -14 586 -17 636 -4 58 14 14 -17 -97 -69 -602 -284 -1237 -205
-1752 216 -41 33 -74 63 -74 67 1 4 53 36 117 72 64 36 263 159 441 274 673
431 954 580 1168 615 70 12 77 12 134 0z m17434 -19 c224 -64 456 -191 1077
-590 184 -118 388 -244 452 -280 64 -36 116 -68 117 -72 0 -4 -33 -34 -74 -67
-278 -227 -596 -359 -918 -379 -287 -19 -565 35 -834 163 -111 52 -155 83 -97
69 50 -13 542 -10 636 4 129 19 264 55 348 94 l74 34 -120 8 c-314 19 -557 75
-750 174 -120 62 -241 178 -284 273 -68 149 -62 319 14 469 63 122 174 153
359 100z m-20115 -447 c140 -47 248 -66 412 -72 l157 -6 -77 -63 c-392 -321
-912 -590 -1426 -738 l-120 -35 132 6 c165 6 335 28 478 61 337 77 428 89 665
81 254 -8 415 -48 612 -149 103 -54 266 -175 252 -187 -5 -4 -49 -25 -99 -46
-129 -54 -242 -105 -575 -260 -577 -268 -871 -387 -1155 -470 -677 -196 -1212
-139 -1690 179 -204 136 -410 331 -592 561 l-63 80 217 6 c467 14 998 135
1558 356 490 193 945 462 1165 687 29 30 50 44 60 40 8 -3 48 -17 89 -31z
m22731 -9 c66 -67 211 -182 330 -261 529 -353 1328 -649 2030 -754 94 -14 222
-24 363 -28 l217 -6 -63 -80 c-112 -141 -253 -290 -369 -390 -544 -468 -1133
-576 -1913 -350 -284 83 -578 202 -1155 470 -333 155 -446 206 -575 260 -49
21 -94 42 -99 46 -14 12 149 133 252 187 197 101 358 141 612 149 237 8 328
-4 665 -81 143 -33 313 -55 478 -61 l132 -6 -120 35 c-514 147 -1035 417
-1426 738 l-77 63 157 6 c171 7 265 23 411 74 52 18 97 33 100 34 3 0 26 -20
50 -45z m-17321 -521 c-46 -64 -195 -289 -225 -341 -16 -28 -20 -30 -26 -15
-3 10 -7 43 -8 73 -1 30 -5 77 -9 105 -9 55 -14 49 79 112 56 39 208 122 223
123 4 0 -11 -26 -34 -57z m11926 1 c123 -69 126 -72 116 -119 -5 -22 -12 -62
-16 -88 l-6 -49 -78 115 c-43 64 -93 134 -111 157 -32 41 -33 42 -9 35 13 -4
60 -27 104 -51z m-15278 -651 c-119 -188 -360 -408 -639 -583 -639 -400 -1644
-660 -2322 -601 -172 16 -216 29 -93 30 192 2 513 49 784 117 682 169 1491
544 2178 1007 61 41 111 73 113 72 2 -2 -8 -21 -21 -42z m18848 -215 c747
-454 1500 -761 2165 -882 169 -31 392 -56 507 -57 123 -1 79 -14 -93 -30 -590
-51 -1426 135 -2069 461 -268 136 -485 284 -659 451 -106 101 -256 285 -256
314 0 3 60 -34 133 -83 72 -49 195 -127 272 -174z m-6544 -1705 c-12 -1233
147 -2142 453 -2602 106 -160 218 -257 363 -317 l58 -24 -60 0 c-190 0 -383
115 -512 305 -202 299 -330 810 -374 1494 -13 213 -7 868 11 1061 15 164 55
450 64 450 0 0 -1 -165 -3 -367z m-6037 248 c46 -287 71 -743 62 -1102 -12
-473 -52 -827 -131 -1154 -143 -592 -396 -913 -734 -931 -72 -4 -82 -2 -61 7
14 7 53 25 87 42 320 152 559 665 672 1443 60 412 84 801 84 1367 0 240 1 436
2 435 2 -2 10 -50 19 -107z m-1294 -5 c128 -16 176 -28 248 -65 41 -21 112
-84 112 -100 0 -4 -26 -3 -57 3 -32 5 -190 10 -353 10 -310 1 -412 -10 -614
-62 l-70 -18 255 -1 c280 0 444 -16 638 -59 121 -27 277 -79 287 -96 3 -5 8
-35 11 -67 l5 -57 -101 17 c-233 39 -473 33 -698 -17 -219 -49 -216 -50 113
-50 309 1 404 -7 592 -45 l102 -22 0 -78 0 -79 -27 7 c-16 4 -140 8 -278 8
-269 -1 -371 -12 -516 -58 l-74 -24 260 -6 c292 -6 477 -27 613 -69 l32 -10 0
-74 0 -74 -72 7 c-112 12 -374 9 -468 -6 -107 -16 -252 -54 -310 -80 -45 -20
-45 -20 -10 -16 203 29 569 33 725 10 147 -22 135 -11 135 -121 l0 -95 -52 8
c-29 4 -125 8 -213 7 -127 0 -177 -5 -245 -22 -74 -18 -160 -48 -160 -55 0 -1
66 0 147 1 176 4 332 -10 440 -41 60 -17 78 -26 77 -39 0 -10 -1 -44 -2 -77
l-2 -58 -202 -6 c-204 -5 -373 -23 -347 -37 8 -4 57 -10 109 -14 125 -9 298
-34 374 -55 l61 -17 -3 -144 c-9 -473 -48 -840 -112 -1060 -45 -151 -111 -203
-280 -219 -170 -16 -494 11 -789 65 -197 36 -251 64 -286 147 -18 43 -40 230
-55 467 -18 275 -22 1295 -8 1882 15 604 8 561 94 598 56 25 194 58 284 69
106 14 541 5 690 -13z m9310 9 c183 -25 322 -73 339 -118 7 -20 23 -582 35
-1262 8 -464 -14 -1203 -45 -1480 -25 -221 -62 -254 -341 -304 -387 -70 -785
-84 -900 -33 -91 40 -131 117 -179 345 -40 191 -74 592 -80 952 l-2 100 69 18
c79 20 351 57 422 57 26 0 53 4 60 9 23 14 -147 33 -355 38 l-203 6 0 77 0 77
58 16 c122 34 199 42 404 42 113 0 201 3 195 8 -31 19 -172 56 -261 67 -95 12
-319 8 -373 -6 -23 -6 -23 -5 -23 89 l0 96 38 10 c146 39 545 42 817 6 l40 -6
-35 16 c-54 25 -190 63 -293 81 -100 18 -370 24 -495 11 l-73 -7 3 77 3 78 75
17 c144 34 295 49 554 55 149 3 252 9 243 14 -33 19 -222 58 -334 70 -116 12
-471 7 -520 -7 -22 -6 -23 -4 -23 62 0 38 4 75 9 82 9 15 156 47 301 64 64 8
219 13 395 12 l290 0 -75 24 c-209 65 -537 85 -783 48 -65 -10 -120 -16 -121
-15 -2 2 -1 30 1 61 5 56 5 57 52 76 221 95 643 153 996 138 100 -4 133 -3
116 4 -37 16 -255 58 -363 69 -128 14 -476 13 -605 -2 -57 -7 -103 -10 -103
-6 0 17 97 93 146 115 103 46 320 70 634 72 112 1 226 -4 290 -13z m-4855
-2316 c426 -36 792 -192 1061 -451 117 -113 193 -208 259 -323 120 -211 112
-368 -28 -522 -143 -157 -357 -311 -577 -417 -184 -88 -324 -133 -530 -172
-115 -22 -441 -30 -567 -15 -444 55 -858 250 -1162 550 -100 98 -133 149 -157
241 -14 55 -15 75 -5 130 26 145 151 344 320 510 306 300 717 462 1216 478 28
1 104 -3 170 -9z m-1325 -43 c0 -2 -29 -20 -64 -40 -35 -19 -110 -66 -167
-104 -631 -419 -1067 -992 -1339 -1762 l-30 -85 6 60 c9 97 52 280 100 425 84
255 260 573 428 774 36 43 66 81 66 83 0 10 -150 -126 -255 -232 -342 -343
-572 -741 -656 -1136 -18 -84 -23 -138 -23 -283 l-1 -178 75 -71 c207 -194
489 -386 787 -536 470 -235 1158 -435 1743 -506 74 -9 140 -18 145 -21 6 -2
-74 -2 -176 1 -827 21 -1619 268 -2286 711 -165 110 -318 228 -420 327 l-73
70 0 93 c0 281 69 606 190 890 285 673 958 1223 1823 1489 115 35 127 38 127
31z m2443 -22 c497 -143 977 -415 1331 -754 440 -422 678 -954 711 -1591 l7
-135 -85 -78 c-394 -359 -941 -662 -1517 -839 -378 -117 -780 -182 -1189 -192
l-186 -5 165 24 c691 100 1241 262 1741 511 319 159 638 380 807 558 l52 56 2
73 c4 219 -19 388 -82 579 -74 227 -220 489 -396 709 -74 93 -337 359 -424
430 l-55 45 60 -70 c285 -333 499 -804 553 -1218 11 -84 2 -76 -33 33 -67 204
-204 500 -320 690 -286 472 -654 839 -1126 1125 -68 41 -120 75 -116 75 5 0
50 -12 100 -26z m-9758 -424 c465 -22 1001 -64 1673 -131 399 -40 415 -43 440
-67 15 -13 65 -43 112 -66 103 -50 154 -96 169 -153 12 -44 10 -65 -16 -146
l-15 -49 -92 7 c-173 13 -552 44 -951 79 -828 73 -1169 91 -1585 83 -369 -7
-551 -30 -772 -98 -382 -117 -638 -320 -949 -756 -545 -765 -1390 -2438 -1643
-3256 -141 -455 -183 -900 -111 -1183 20 -76 101 -245 168 -348 66 -100 199
-266 263 -326 l47 -45 -46 65 c-47 68 -167 278 -167 293 0 5 37 -40 82 -99
614 -817 1477 -1542 2503 -2105 199 -109 452 -232 725 -354 612 -272 867 -468
920 -706 54 -243 -149 -305 -565 -172 -440 141 -1224 513 -1780 846 -991 592
-1854 1380 -2359 2154 -84 130 -162 263 -153 263 3 0 38 -46 78 -102 94 -131
280 -364 416 -520 232 -268 655 -671 958 -914 687 -552 1519 -1022 2309 -1305
60 -22 114 -38 119 -36 6 2 -41 32 -104 67 -331 184 -812 479 -1164 713 -814
543 -1429 1047 -1872 1536 -354 391 -577 774 -648 1116 -23 108 -31 372 -16
531 65 694 420 1613 1043 2698 289 504 685 1105 1037 1576 80 107 159 213 175
235 51 71 -327 -316 -455 -466 -256 -301 -472 -590 -748 -1004 -369 -553 -684
-1095 -1023 -1760 -99 -192 -176 -339 -172 -325 13 48 96 276 149 405 340 838
903 1864 1400 2550 327 452 703 865 945 1039 210 152 387 212 688 235 156 12
744 13 987 1z m17935 0 c266 -20 375 -46 545 -133 226 -116 469 -339 806 -743
587 -702 1292 -1920 1713 -2959 59 -146 146 -388 146 -404 0 -3 -78 147 -173
334 -552 1084 -1143 2011 -1724 2707 -147 175 -397 443 -477 512 l-58 50 92
-120 c51 -65 150 -198 220 -294 918 -1268 1625 -2614 1869 -3560 83 -322 113
-533 114 -790 0 -277 -38 -447 -157 -695 -150 -313 -363 -593 -731 -960 -631
-631 -1571 -1310 -2734 -1977 -124 -70 -222 -128 -219 -128 3 0 59 18 124 41
275 94 623 245 929 403 1120 577 2082 1387 2769 2331 49 66 90 122 94 125 11
10 -73 -137 -131 -230 -313 -495 -813 -1036 -1384 -1497 -666 -538 -1429 -988
-2323 -1368 -379 -161 -584 -228 -744 -244 -201 -19 -286 34 -286 178 0 110
46 204 151 310 153 153 357 271 837 485 1312 585 2424 1440 3171 2439 41 53
76 97 78 97 7 0 -85 -167 -135 -245 -74 -115 -76 -123 -22 -65 199 211 355
458 417 657 27 86 27 95 27 338 1 272 -10 359 -74 632 -169 713 -970 2375
-1603 3328 -418 628 -748 871 -1309 964 -186 31 -337 41 -623 41 -395 0 -723
-20 -1525 -90 -613 -54 -971 -82 -986 -76 -17 7 -44 93 -44 143 0 83 48 137
183 204 45 23 93 51 107 64 23 22 50 26 440 64 705 69 1082 100 1490 121 113
6 230 12 260 13 148 8 761 6 880 -3z m-14535 -716 l55 -15 0 -42 c0 -23 -11
-1651 -25 -3617 -14 -1966 -25 -3654 -25 -3749 0 -109 -4 -171 -9 -165 -39 38
-116 244 -145 385 -37 178 -37 157 9 3524 50 3686 51 3709 71 3701 8 -3 39
-13 69 -22z m10265 -106 c0 -73 21 -1571 46 -3328 25 -1757 43 -3301 41 -3430
-4 -189 -9 -254 -26 -332 -27 -122 -68 -243 -113 -333 l-36 -70 -5 115 c-4 63
-15 1688 -27 3610 -11 1922 -22 3577 -24 3676 l-4 182 67 20 c36 11 69 20 74
21 4 1 7 -59 7 -131z m-9955 46 c65 -9 227 -17 397 -21 l286 -6 -5 -176 c-2
-97 -38 -1870 -78 -3940 -41 -2070 -76 -3765 -78 -3767 -2 -3 -37 -12 -78 -20
-175 -37 -398 29 -567 168 l-64 52 7 510 c6 487 65 6930 65 7124 0 50 1 92 3
92 1 0 52 -7 112 -16z m1177 -135 c-2 -79 -39 -1719 -82 -3645 -75 -3263 -81
-3505 -99 -3575 -22 -87 -56 -178 -74 -203 -11 -15 -13 1 -10 101 2 65 33
1702 68 3638 36 1936 68 3588 71 3672 l6 152 52 4 c28 2 56 2 61 2 6 -1 9 -55
7 -146z m7319 132 c4 -3 37 -1608 73 -3566 36 -1958 68 -3661 71 -3785 l5
-225 -31 62 c-17 34 -41 108 -54 165 l-25 103 -80 3620 c-44 1991 -80 3625
-80 3631 0 11 109 7 121 -5z m1173 -183 c3 -112 20 -1850 37 -3862 l32 -3660
-48 -43 c-69 -63 -166 -117 -275 -155 -85 -29 -106 -32 -200 -32 -61 1 -122 7
-145 15 l-40 14 -3 70 c-3 84 -152 7687 -152 7761 l0 51 288 7 c158 3 330 12
382 20 52 7 100 14 106 15 8 1 14 -59 18 -201z m-12509 98 c307 -22 722 -60
1040 -96 332 -38 829 -104 816 -108 -5 -2 -142 8 -303 22 -571 50 -1025 81
-1568 107 -331 16 -1021 16 -1180 0 -358 -35 -605 -97 -850 -213 -423 -200
-731 -532 -1006 -1083 -84 -166 -85 -162 -12 35 139 374 311 655 531 866 310
299 682 436 1322 488 123 10 994 -3 1210 -18z m16475 14 c385 -29 645 -90 896
-210 431 -206 709 -556 943 -1184 29 -76 50 -140 48 -142 -2 -3 -19 30 -38 73
-48 110 -186 356 -268 476 -353 519 -791 784 -1451 878 -453 64 -1426 39
-2750 -71 -467 -39 -487 -41 -475 -36 14 7 578 80 850 110 402 46 896 87 1255
105 233 12 837 12 990 1z m-16865 -199 c189 -18 462 -50 665 -79 l195 -27 -2
-125 c-1 -69 -13 -332 -27 -585 -49 -883 -68 -1352 -69 -1675 -1 -294 1 -336
21 -443 46 -250 131 -439 261 -579 171 -185 370 -267 751 -309 129 -15 655
-18 794 -6 l89 8 -7 -493 c-3 -271 -9 -629 -13 -796 l-6 -304 -43 119 c-60
162 -181 399 -262 512 -155 217 -340 372 -523 436 -39 14 -1123 105 -1242 105
-23 0 -65 -11 -93 -24 -113 -53 -167 -132 -167 -246 0 -87 26 -143 97 -207 89
-81 133 -100 271 -112 228 -20 601 -32 885 -29 l285 3 15 32 c8 18 19 33 23
33 14 0 143 -136 210 -222 141 -181 344 -513 476 -776 l58 -117 7 -440 c8
-484 17 -574 75 -751 114 -350 344 -590 647 -675 102 -29 277 -32 374 -6 207
54 380 201 470 400 l27 60 7 -114 c7 -128 -6 -363 -29 -508 -84 -517 -301
-826 -626 -888 -210 -40 -632 18 -1140 157 -1247 341 -3012 1116 -4274 1878
-784 474 -1546 1144 -1899 1672 -86 127 -172 309 -202 425 -23 89 -25 113 -21
225 10 236 84 507 262 950 149 374 301 690 694 1450 360 695 461 876 627 1125
231 347 487 611 718 740 192 107 485 184 821 215 122 11 669 5 820 -9z m16965
-6 c361 -48 622 -139 824 -288 186 -137 409 -386 589 -658 177 -268 232 -367
730 -1329 566 -1093 800 -1690 852 -2172 14 -127 -35 -322 -122 -490 -227
-439 -816 -1029 -1553 -1555 -817 -583 -2449 -1389 -3800 -1876 -1024 -369
-1815 -534 -2120 -441 -304 92 -495 393 -576 909 -16 105 -32 531 -20 561 5
13 14 2 37 -46 90 -191 260 -335 454 -384 430 -108 860 169 1025 662 69 208
73 242 77 741 l5 455 60 120 c131 262 323 579 461 760 64 84 214 246 228 246
4 0 11 -9 14 -20 16 -50 15 -50 353 -50 322 0 607 11 832 31 108 9 133 15 183
41 68 37 147 111 172 164 27 55 31 141 11 202 -31 92 -134 170 -235 179 -25 2
-311 -16 -634 -41 -539 -42 -593 -48 -648 -70 -188 -76 -372 -240 -524 -466
-74 -111 -182 -329 -230 -466 -21 -60 -42 -113 -47 -119 -4 -5 -8 94 -8 220 0
127 -5 484 -10 794 -5 311 -9 566 -7 567 1 1 110 -2 241 -9 493 -23 917 25
1133 129 299 143 472 421 529 848 29 219 12 796 -66 2200 -17 297 -28 542 -25
544 14 14 638 93 880 112 77 6 160 12 185 14 119 10 632 -3 750 -19z m-15841
-391 c-46 -67 -104 -197 -133 -296 -26 -89 -55 -265 -57 -334 0 -22 -4 -48 -9
-59 -5 -12 -9 44 -9 145 -1 248 40 412 129 514 26 29 88 73 108 76 2 0 -11
-21 -29 -46z m13838 -27 c50 -54 74 -100 102 -192 36 -124 50 -311 32 -455
l-7 -55 -7 90 c-21 261 -88 486 -188 632 -16 23 -29 44 -29 48 0 14 60 -27 97
-68z m-9748 -2727 c6 -476 16 -1369 21 -1985 19 -2097 54 -3478 111 -4350 117
-1804 816 -2919 1992 -3179 421 -93 1005 -85 1416 19 827 209 1410 860 1710
1909 120 419 184 848 216 1441 51 967 78 2020 95 3745 23 2356 37 3446 46
3438 1 -2 7 -230 14 -508 6 -278 22 -991 35 -1585 39 -1702 44 -1966 56 -2880
13 -928 6 -2407 -11 -2645 -52 -722 -183 -1249 -432 -1742 -401 -795 -1102
-1290 -2004 -1414 -154 -21 -611 -29 -799 -14 -712 57 -1342 365 -1772 865
-469 545 -720 1243 -805 2235 -18 208 -18 2965 0 3775 14 657 36 1600 57 2490
8 341 18 805 22 1030 10 572 19 405 32 -645z m-4275 598 c114 -525 362 -888
719 -1053 86 -39 157 -61 286 -86 l96 -19 -110 6 c-358 17 -606 107 -781 282
-135 135 -214 305 -260 557 -19 108 -30 431 -19 571 l8 99 18 -120 c10 -66 29
-173 43 -237z m14209 170 c8 -179 -5 -386 -32 -527 -100 -515 -424 -766 -1026
-795 l-120 -6 101 19 c435 79 728 341 911 815 48 124 108 366 130 523 10 72
20 130 24 128 3 -3 9 -73 12 -157z m-8488 -963 c162 -134 399 -312 573 -429
72 -49 130 -92 128 -94 -8 -8 -242 91 -342 144 -361 192 -695 496 -926 845
-154 231 -147 227 156 -76 155 -155 340 -330 411 -390z m3360 625 c-14 -28
-59 -100 -100 -161 -293 -434 -691 -762 -1146 -944 -61 -25 -116 -45 -122 -45
-5 0 50 41 124 91 436 298 788 597 1110 943 85 91 155 166 157 166 1 0 -9 -23
-23 -50z m-3793 -2066 c270 -265 531 -476 913 -737 140 -96 138 -98 -30 -30
-405 163 -771 453 -1058 836 -65 87 -197 295 -197 310 0 3 58 -56 129 -131 71
-75 180 -187 243 -248z m3904 327 c-14 -27 -57 -95 -95 -152 -258 -384 -595
-683 -986 -874 -138 -68 -314 -139 -290 -117 6 5 69 49 140 97 424 289 767
580 1095 930 85 91 156 165 158 165 1 0 -9 -22 -22 -49z m-3907 -2309 c248
-242 506 -454 823 -675 96 -67 185 -130 198 -139 46 -33 -141 40 -285 111
-386 190 -742 510 -990 891 -130 200 -129 208 5 65 68 -71 180 -185 249 -253z
m3895 307 c-186 -330 -530 -691 -847 -889 -55 -34 -142 -84 -194 -110 -96 -50
-302 -135 -309 -128 -2 3 58 47 134 99 422 290 726 547 1062 898 90 94 168
178 173 186 5 9 11 15 13 12 3 -2 -12 -33 -32 -68z m-3334 -2779 c158 -133
391 -308 583 -440 75 -52 135 -95 134 -97 -7 -7 -217 81 -326 137 -368 187
-714 502 -953 866 -142 217 -138 215 153 -78 151 -151 335 -326 409 -388z
m3095 610 c-14 -28 -59 -100 -100 -161 -286 -424 -687 -757 -1120 -932 -165
-67 -170 -66 -50 17 482 334 817 617 1140 964 83 89 151 162 153 162 1 0 -9
-23 -23 -50z m-45 -1727 c-183 -326 -502 -669 -815 -878 -149 -99 -331 -191
-495 -249 -89 -32 -87 -30 55 64 420 279 812 613 1145 974 74 80 137 146 138
146 2 0 -11 -26 -28 -57z m-3001 -612 c170 -143 365 -290 564 -425 86 -59 157
-109 157 -111 0 -11 -180 63 -305 125 -245 121 -434 259 -640 465 -168 167
-325 371 -426 549 -30 54 -7 33 241 -216 151 -151 335 -326 409 -387z"/>
<path d="M26065 24199 c-471 -35 -953 -168 -1367 -375 -59 -30 -112 -54 -117
-54 -6 0 -22 20 -37 45 -39 67 -43 141 -12 233 14 39 21 72 16 72 -28 0 -179
-247 -278 -454 -60 -125 -190 -419 -190 -431 0 -2 44 40 98 93 191 189 376
321 637 453 491 247 1028 361 1630 346 844 -22 1570 -299 2073 -791 56 -55
102 -97 102 -93 0 12 -118 282 -178 410 -98 207 -221 407 -281 462 l-22 19 22
-49 c44 -101 34 -250 -20 -299 -18 -16 -27 -13 -162 52 -595 286 -1255 410
-1914 361z"/>
<path d="M26070 24019 c-738 -74 -1390 -383 -1891 -896 -629 -644 -992 -1595
-930 -2433 60 -796 431 -1573 998 -2092 450 -412 1007 -671 1648 -768 200 -31
574 -38 785 -16 725 77 1369 376 1860 866 406 404 681 898 828 1486 76 302 97
495 89 794 -7 242 -30 412 -88 642 -84 334 -209 633 -394 938 -314 520 -737
912 -1260 1170 -317 157 -608 247 -956 295 -137 19 -553 28 -689 14z m670
-514 c414 -64 810 -213 1155 -433 397 -254 792 -661 1058 -1094 73 -117 167
-284 167 -295 0 -4 -30 38 -67 93 -474 697 -1171 1229 -1967 1500 l-158 54 59
-64 c70 -74 92 -132 74 -188 -27 -82 -152 -160 -345 -215 l-96 -28 0 -66 c0
-37 -7 -86 -15 -109 -8 -23 -15 -46 -15 -50 0 -4 28 -15 62 -24 191 -53 550
-219 802 -370 312 -187 531 -359 807 -635 205 -206 337 -361 479 -564 41 -59
76 -103 78 -98 4 13 -47 124 -97 209 l-42 71 20 173 c11 95 28 274 37 397 l18
224 52 -56 c28 -30 77 -93 108 -140 l56 -84 0 -104 c0 -158 -19 -517 -35 -679
-66 -643 -246 -1211 -505 -1595 -40 -59 -140 -283 -241 -538 -23 -57 -22 -57
89 36 219 184 425 444 552 696 65 131 64 136 -13 55 -65 -69 -200 -188 -237
-209 -17 -10 -22 -17 57 85 133 171 278 427 362 637 156 392 206 864 132 1243
-11 52 -18 96 -16 98 5 6 84 -156 108 -223 35 -99 74 -281 87 -404 49 -486
-96 -1014 -407 -1491 -405 -618 -971 -1055 -1652 -1274 -848 -274 -1803 -139
-2545 358 -183 122 -282 203 -440 356 -482 469 -783 1022 -861 1585 -13 92
-16 168 -12 325 5 224 23 344 77 509 28 87 107 257 115 249 3 -2 -2 -36 -10
-74 -22 -109 -35 -253 -35 -393 0 -524 176 -1033 512 -1479 43 -57 81 -109 85
-115 17 -27 -129 96 -219 185 -54 54 -98 95 -98 92 0 -19 114 -227 174 -319
89 -136 171 -237 278 -347 87 -89 249 -230 256 -223 11 10 -211 519 -252 578
-338 495 -535 1299 -536 2185 l0 204 62 90 c34 49 81 111 104 136 l42 47 6
-65 c3 -36 15 -171 27 -300 11 -129 26 -279 32 -332 l13 -96 -43 -74 c-45 -76
-108 -217 -100 -224 2 -3 24 26 48 63 256 394 659 802 1088 1101 298 208 732
426 1023 514 61 18 77 26 72 38 -22 50 -35 121 -31 166 l5 50 -71 18 c-170 43
-316 121 -357 189 -43 69 -14 164 71 241 l50 45 -83 -26 c-790 -241 -1557
-809 -2030 -1503 -89 -131 -101 -144 -53 -55 550 1016 1410 1643 2425 1770
152 19 552 13 700 -10z m-1446 -667 c3 -117 9 -285 12 -374 l7 -161 -48 -27
c-32 -19 -50 -25 -54 -17 -4 6 -13 154 -20 329 -6 174 -14 334 -17 354 -5 36
-4 38 48 72 29 19 56 35 59 35 3 1 9 -95 13 -211z m2224 153 c12 -7 11 -68 -3
-377 -9 -203 -18 -370 -19 -371 0 -1 -25 13 -54 30 -50 31 -53 34 -48 67 3 19
8 161 11 315 3 154 8 306 11 337 l6 58 41 -25 c23 -14 48 -29 55 -34z m-2961
-829 l43 -367 -41 -37 c-23 -21 -45 -38 -48 -38 -8 0 -104 711 -100 733 4 16
91 88 98 81 3 -3 24 -170 48 -372z m3733 303 c6 -7 -9 -148 -40 -376 -28 -200
-50 -368 -50 -372 0 -5 -22 11 -48 34 l-48 43 33 275 c17 152 37 320 43 373
l12 98 45 -32 c24 -18 48 -37 53 -43z"/>
<path d="M26166 22339 c-299 -28 -640 -138 -932 -300 -352 -195 -747 -512
-1074 -860 l-113 -120 12 -132 c33 -371 101 -847 152 -1067 l22 -95 22 122
c23 123 63 257 91 303 l15 25 -5 -35 c-42 -283 -28 -707 28 -844 l12 -30 31
67 c18 36 53 99 79 139 51 79 161 218 172 218 4 0 26 -82 48 -182 l40 -182
-73 -70 c-72 -68 -179 -193 -172 -201 2 -2 40 19 84 46 190 118 510 267 750
349 223 76 581 160 681 160 l24 0 2 -162 c1 -147 2 -155 9 -78 4 47 7 121 8
166 l1 81 92 7 c108 7 297 6 388 -3 l65 -6 5 -295 5 -295 3 294 2 294 63 -7
c413 -46 993 -256 1400 -508 43 -26 81 -48 83 -48 14 0 -50 76 -144 172 l-104
106 37 164 c50 222 43 203 67 181 66 -59 207 -268 244 -361 9 -24 21 -39 25
-35 19 19 50 174 59 300 10 125 3 348 -16 531 -4 42 -3 53 5 42 21 -29 72
-205 90 -309 10 -58 20 -101 23 -95 10 17 47 188 72 334 34 199 62 412 90 695
l24 239 -58 66 c-81 90 -295 299 -417 408 -510 451 -1035 724 -1533 796 -137
20 -360 27 -484 15z m-811 -1435 c19 -610 35 -1119 35 -1131 0 -18 -22 -33
-122 -83 -129 -65 -283 -161 -385 -241 -60 -47 -63 -48 -67 -27 -3 13 -67 480
-142 1037 l-136 1015 42 39 c23 21 43 37 45 35 4 -4 195 -1623 195 -1653 0
-11 41 22 114 92 62 60 168 151 235 203 l121 95 0 45 c0 25 -16 394 -35 820
-19 426 -35 785 -35 797 0 17 12 29 48 47 26 13 48 23 49 22 2 -1 19 -502 38
-1112z m2085 1088 l43 -27 -2 -75 c-1 -41 -17 -419 -36 -839 l-34 -764 21 -15
c107 -75 341 -279 408 -356 l34 -39 7 29 c4 16 49 389 100 829 50 440 95 803
98 807 3 4 25 -10 47 -30 l42 -37 -139 -1020 c-76 -561 -139 -1028 -141 -1038
-2 -13 -22 -3 -94 51 -118 90 -254 173 -381 235 l-103 50 5 51 c3 28 19 538
37 1134 18 595 35 1082 38 1082 3 0 26 -12 50 -28z m-915 -408 c99 -26 95 -20
95 -144 0 -61 -2 -110 -4 -110 -2 0 -28 11 -57 24 -30 13 -69 27 -87 31 l-33
7 47 -69 c186 -271 179 -578 -20 -863 -39 -56 -43 -65 -27 -68 18 -3 127 19
164 33 15 7 17 -2 17 -89 l0 -95 -72 -23 c-104 -33 -291 -33 -395 0 l-73 23 0
247 c0 136 3 433 7 660 l6 412 52 15 c125 37 259 40 380 9z m-495 -171 c0 -60
5 -342 10 -627 6 -285 8 -521 6 -524 -3 -2 -22 6 -43 19 -250 151 -391 428
-354 700 21 156 78 279 184 394 52 58 166 145 188 145 5 0 9 -48 9 -107z m705
80 c106 -71 194 -170 248 -278 60 -120 72 -174 71 -320 0 -113 -4 -141 -27
-210 -37 -113 -90 -198 -177 -285 -59 -60 -169 -140 -191 -140 -2 0 -3 45 -1
100 2 55 7 100 12 100 4 0 31 21 59 46 95 86 141 197 141 342 0 149 -49 277
-146 381 -54 58 -54 59 -54 122 0 78 10 169 19 169 4 0 24 -12 46 -27z m-1059
-1080 c58 -100 172 -198 307 -264 l67 -33 0 -81 0 -82 -102 -17 c-127 -23
-242 -55 -376 -108 -57 -22 -105 -38 -107 -37 -1 2 -6 135 -10 294 l-7 290 24
14 c23 14 157 70 170 71 3 0 19 -21 34 -47z m1504 -1 l75 -37 -2 -100 c-1 -55
-5 -188 -9 -296 l-6 -196 -91 39 c-106 46 -295 100 -414 118 l-83 12 0 83 0
83 43 17 c123 49 254 154 317 253 52 83 50 83 170 24z m-853 -360 c88 -4 114
-1 193 22 50 14 95 26 100 26 6 0 10 -31 10 -68 l0 -68 -275 0 -275 0 0 71 0
71 73 -25 c52 -18 100 -26 174 -29z"/>
<path d="M28115 18972 c-33 -30 -100 -86 -150 -122 -849 -628 -2214 -662
-3117 -77 -77 50 -170 121 -275 212 -24 20 -43 33 -43 28 0 -22 53 -201 80
-271 29 -76 34 -83 108 -140 609 -471 1430 -645 2236 -476 368 78 796 277
1052 492 57 47 64 58 94 139 30 84 82 264 77 269 -1 1 -29 -23 -62 -54z"/>
<path d="M23878 23752 c-478 -358 -904 -944 -1127 -1550 -154 -420 -240 -972
-216 -1397 l8 -140 22 105 c61 284 179 501 311 572 27 14 74 33 104 43 115 37
146 82 215 320 131 449 346 921 539 1183 l46 62 0 128 c1 248 35 393 164 695
9 20 15 37 14 37 -2 0 -38 -26 -80 -58z"/>
<path d="M28780 23722 c107 -247 140 -391 140 -610 l0 -149 93 -139 c195 -294
373 -696 498 -1126 61 -214 97 -271 187 -304 126 -46 163 -67 222 -131 96
-102 183 -302 223 -510 6 -34 15 -59 19 -57 11 7 10 407 -2 549 -62 738 -319
1384 -777 1961 -150 189 -474 499 -613 587 l-29 18 39 -89z"/>
<path d="M30098 20183 c-45 -230 -212 -658 -357 -912 -23 -41 -40 -75 -38 -77
6 -7 133 150 190 234 94 140 174 322 207 477 17 79 29 244 22 308 l-7 57 -17
-87z"/>
<path d="M22580 20158 c0 -188 50 -400 134 -566 50 -100 165 -267 235 -342
l61 -65 -36 65 c-157 284 -305 654 -364 913 -12 53 -24 97 -26 97 -2 0 -4 -46
-4 -102z"/>
<path d="M29155 19306 c-146 -245 -312 -454 -529 -671 -83 -83 -200 -190 -261
-239 -491 -392 -1082 -633 -1704 -696 -154 -15 -504 -12 -661 5 -997 115
-1880 681 -2421 1553 -43 70 -83 134 -89 142 -26 40 39 -110 106 -241 94 -186
206 -354 328 -492 113 -128 131 -168 100 -226 -23 -44 -92 -84 -178 -102 -103
-22 -272 -14 -362 17 -30 11 189 -207 316 -315 632 -532 1478 -847 2363 -879
1047 -39 1979 256 2719 860 116 95 354 325 346 334 -3 2 -18 0 -34 -6 -58 -22
-186 -32 -272 -20 -204 27 -293 111 -236 222 9 17 44 61 79 98 77 82 166 200
241 323 74 119 235 447 220 447 -1 0 -33 -51 -71 -114z"/>
<path d="M16800 14524 c-202 -32 -369 -111 -438 -208 -18 -24 -32 -47 -32 -50
0 -3 21 9 48 28 202 144 508 214 957 217 254 2 126 19 -180 24 -201 3 -282 1
-355 -11z"/>
<path d="M35301 14529 c-41 -5 -76 -10 -78 -12 -2 -2 101 -7 229 -10 404 -10
660 -69 846 -194 36 -24 67 -42 69 -40 2 2 -10 23 -27 45 -76 105 -244 180
-473 211 -91 13 -458 12 -566 0z"/>
<path d="M6715 35019 c-244 -265 -360 -621 -333 -1028 8 -126 30 -248 35 -196
16 159 65 270 163 366 38 38 77 69 85 69 8 0 47 -48 86 -107 487 -727 1221
-1320 2309 -1864 366 -183 667 -316 1245 -551 770 -313 886 -364 1093 -485
146 -85 250 -162 335 -251 73 -77 97 -120 97 -180 0 -143 -269 -187 -714 -117
-530 83 -988 236 -1550 517 -599 300 -1237 716 -1820 1186 -70 57 -125 98
-120 90 4 -7 40 -56 80 -108 238 -315 559 -625 939 -908 256 -190 519 -361
1160 -752 471 -288 804 -519 1070 -741 120 -101 368 -340 360 -347 -13 -14
-263 -20 -410 -11 -274 16 -514 64 -774 154 -340 119 -683 310 -923 517 -32
27 -58 45 -58 41 0 -15 117 -181 185 -263 202 -242 539 -493 1020 -760 186
-102 450 -276 614 -403 118 -91 141 -103 141 -73 0 32 56 178 103 270 126 247
350 462 626 601 270 135 704 255 1055 291 37 4 65 10 64 14 -2 4 -30 30 -64
58 -74 61 -144 152 -194 252 -92 184 -138 405 -199 950 -35 314 -65 462 -132
667 -134 403 -386 770 -665 966 l-59 41 73 -78 c286 -308 445 -813 469 -1480
l6 -190 -89 78 c-180 156 -456 326 -819 502 -234 114 -393 185 -985 441 -485
210 -765 337 -1040 470 -1178 571 -1874 1157 -2212 1860 -63 132 -136 339
-165 471 -10 45 -21 82 -24 82 -4 0 -32 -28 -64 -61z"/>
<path d="M45817 34998 c-10 -46 -38 -143 -62 -215 -226 -682 -783 -1264 -1730
-1808 -362 -209 -809 -424 -1515 -730 -664 -287 -858 -374 -1085 -484 -371
-181 -644 -347 -829 -508 l-89 -77 6 190 c24 667 184 1172 469 1480 l73 78
-61 -42 c-275 -192 -531 -566 -664 -970 -66 -201 -96 -352 -130 -657 -34 -300
-54 -441 -81 -577 -60 -303 -160 -503 -313 -630 -34 -28 -62 -54 -64 -58 -1
-4 27 -10 64 -14 351 -36 785 -156 1055 -291 202 -102 392 -258 520 -428 69
-92 170 -292 195 -387 9 -36 20 -68 23 -73 4 -4 63 36 132 89 164 128 428 301
614 404 574 319 918 594 1133 908 84 122 87 136 17 76 -244 -209 -593 -404
-930 -520 -261 -90 -497 -137 -770 -153 -147 -9 -397 -3 -410 11 -8 7 240 246
360 347 266 222 599 453 1070 741 641 391 904 562 1160 752 380 283 701 593
939 908 40 52 76 101 80 108 5 8 -50 -33 -120 -90 -893 -720 -1917 -1309
-2689 -1546 -336 -103 -703 -174 -964 -188 -273 -14 -431 42 -431 154 0 106
168 271 434 427 194 114 329 173 1091 483 578 235 881 369 1245 551 1087 544
1822 1137 2309 1864 39 59 78 107 86 107 8 0 47 -31 85 -69 98 -96 147 -207
163 -366 5 -54 28 76 35 201 21 346 -57 648 -228 892 -49 70 -156 192 -169
192 -3 0 -14 -37 -24 -82z"/>
<path d="M12606 31795 c-43 -253 -51 -504 -22 -680 44 -265 157 -486 342 -671
136 -135 284 -236 518 -350 l150 -74 96 0 c181 0 533 -31 749 -65 52 -9 95
-14 96 -13 2 2 -89 54 -200 117 -653 364 -1046 681 -1340 1076 -166 224 -242
361 -374 680 -6 16 -9 12 -15 -20z"/>
<path d="M40056 31752 c-65 -175 -203 -425 -328 -594 -306 -415 -691 -725
-1378 -1111 -169 -95 -189 -108 -150 -103 25 4 88 14 140 21 165 25 394 45
588 51 l187 6 150 73 c463 226 730 515 829 899 36 136 50 279 43 446 -5 134
-31 349 -46 377 -3 6 -19 -23 -35 -65z"/>
<path d="M10895 24290 c23 -26 163 -119 249 -166 58 -31 68 -35 62 -18 -4 10
-17 48 -29 84 -12 36 -23 67 -24 68 -1 4 -249 51 -267 52 -5 0 -1 -9 9 -20z"/>
<path d="M41587 24285 c-65 -13 -119 -24 -120 -26 -2 -2 -13 -35 -26 -74 -12
-38 -25 -76 -28 -84 -11 -29 269 142 312 189 17 19 17 20 -1 19 -10 -1 -72
-12 -137 -24z"/>
</g>
</svg>
